HIERARCHY
ROOT Hips
{
	OFFSET 0.00000 0.00000 0.00000
	CHANNELS 6 Xposition Yposition Zposition Zrotation Yrotation Xrotation 
	JOINT LHipJoint
	{
		OFFSET 0 0 0
		CHANNELS 3 Zrotation Yrotation Xrotation
		JOINT LeftHip
		{
			OFFSET 1.58895 -1.83665 0.71753
			CHANNELS 3 Zrotation Yrotation Xrotation
			JOINT LeftKnee
			{
				OFFSET 2.50528 -6.88321 0.00000
				CHANNELS 3 Zrotation Yrotation Xrotation
				JOINT LeftAnkle
				{
					OFFSET 2.63244 -7.23257 0.00000
					CHANNELS 3 Zrotation Yrotation Xrotation
					JOINT LeftToe
					{
						OFFSET 0.23691 -0.65090 1.72750
						CHANNELS 3 Zrotation Yrotation Xrotation
						End Site
						{
							OFFSET 0.00000 -0.00000 0.92561
						}
					}
				}
			}
		}
	}
	JOINT RHipJoint
	{
		OFFSET 0 0 0
		CHANNELS 3 Zrotation Yrotation Xrotation
		JOINT RightHip
		{
			OFFSET -1.51435 -1.83665 0.71753
			CHANNELS 3 Zrotation Yrotation Xrotation
			JOINT RightKnee
			{
				OFFSET -2.54551 -6.99375 0.00000
				CHANNELS 3 Zrotation Yrotation Xrotation
				JOINT RightAnkle
				{
					OFFSET -2.66027 -7.30903 0.00000
					CHANNELS 3 Zrotation Yrotation Xrotation
					JOINT RightToe
					{
						OFFSET -0.22981 -0.63138 2.03959
						CHANNELS 3 Zrotation Yrotation Xrotation
						End Site
						{
							OFFSET -0.00000 -0.00000 1.07060
						}
					}
				}
			}
		}
	}
	JOINT lowerback
	{
		OFFSET 0 0 0
		CHANNELS 3 Zrotation Yrotation Xrotation
		JOINT Chest
		{
			OFFSET -0.02651 1.86275 -0.11152
			CHANNELS 3 Zrotation Yrotation Xrotation
			JOINT Chest2
			{
				OFFSET 0.01019 1.86224 0.04087
				CHANNELS 3 Zrotation Yrotation Xrotation
				JOINT lowerneck
				{
					OFFSET 0 0 0
					CHANNELS 3 Zrotation Yrotation Xrotation
					JOINT Neck
					{
						OFFSET -0.01926 1.80512 0.08867
						CHANNELS 3 Zrotation Yrotation Xrotation
						JOINT Head
						{
							OFFSET 0.05516 1.76451 -0.38475
							CHANNELS 3 Zrotation Yrotation Xrotation
							End Site
							{
								OFFSET 0.01592 1.82587 -0.14001
							}
						}
					}
				}
				JOINT LeftCollar
				{
					OFFSET 0 0 0
					CHANNELS 3 Zrotation Yrotation Xrotation
					JOINT LeftShoulder
					{
						OFFSET 3.47116 1.51376 0.14491
CHANNELS 3 Zrotation Xrotation Yrotation
						JOINT LeftElbow
						{
OFFSET 0 -4.780950 0.000000
CHANNELS 3 Zrotation Xrotation Yrotation
							JOINT LeftWrist
							{
OFFSET 0 -3.586150 -0.000000
CHANNELS 3 Zrotation Xrotation Yrotation
								JOINT lhand
								{
									OFFSET 0 0 0
CHANNELS 3 Zrotation Xrotation Yrotation
									JOINT LFingers
									{
OFFSET 0 -0.659810 0.000000
CHANNELS 3 Zrotation Xrotation Yrotation
										End Site
										{
OFFSET 0 -0.531960 0.000000
										}
									}
								}
								JOINT LThumb
								{
OFFSET 0 0.000000 0.000000
CHANNELS 3 Zrotation Xrotation Yrotation
									End Site
									{
OFFSET 0 -0.540080 0.540080
									}
								}
							}
						}
					}
				}
				JOINT RightCollar
				{
					OFFSET 0 0 0
					CHANNELS 3 Zrotation Yrotation Xrotation
					JOINT RightShoulder
					{
						OFFSET -3.31725 1.61216 0.35156
CHANNELS 3 Zrotation Xrotation Yrotation
						JOINT RightElbow
						{
OFFSET 0 -4.489130 0.000000
CHANNELS 3 Zrotation Xrotation Yrotation
							JOINT RightWrist
							{
OFFSET 0 -3.705100 0.000000
CHANNELS 3 Zrotation Xrotation Yrotation
								JOINT rhand
								{
									OFFSET 0 0 0
CHANNELS 3 Zrotation Xrotation Yrotation
									JOINT RFingers
									{
OFFSET 0 -0.449140 0.000000
CHANNELS 3 Zrotation Xrotation Yrotation
										End Site
										{
OFFSET 0 -0.362110 0.000000
										}
									}
								}
								JOINT RThumb
								{
OFFSET 0 0.000000 0.000000
CHANNELS 3 Zrotation Xrotation Yrotation
									End Site
									{
OFFSET 0 -0.367630 0.367630
									}
								}
							}
						}
					}
				}
			}
		}
	}
}
MOTION
Frames: 6
Frame Time: 0.008333333333333333
-1.626776 17.828181 6.933644 -5.232247 9.099606 -7.199206 0.000000 0.000000 0.000000 -7.369044 -0.595820 33.470056 2.410689 -9.673432 -27.925666 -0.536829 14.476945 1.796383 1.826236 -8.494442 -24.226246 0.000000 0.000000 0.000000 21.775682 -14.196660 19.848365 -0.030034 0.959356 -2.639074 -1.515587 -4.998258 -25.527769 -0.049438 -1.434096 3.944050 -2.336384 5.138887 6.466424 -8.011077 6.091615 -4.584642 -8.058102 2.876794 -7.854658 -13.138897 -15.601404 -15.904964 13.029030 -19.548365 3.806852 3.824553 -8.965017 6.239214 0.000000 0.000000 0.000000 42.723318 20.120525 -42.290354 83.725574 -59.839066 54.569744 20.608106 -41.654202 29.731643 0.000000 0.000000 0.000000 -7.125000 0.000000 0.000000 -5.977571 -1.258988 -6.140678 0.000000 0.000000 0.000000 -89.176932 -26.593471 -68.237470 -47.194094 -51.533662 -24.018457 -34.266936 -16.865885 42.762118 0.000000 0.000000 0.000000 7.125000 0.000000 0.000000 7.554569 78.094499 -5.906196
-1.643815 17.863742 6.909133 -5.164310 9.824986 -6.616095 0.000000 0.000000 0.000000 -7.546908 -1.356381 32.548041 2.345240 -9.550656 -27.533591 -0.546065 14.608580 1.831052 1.720454 -8.256377 -23.496446 0.000000 0.000000 0.000000 21.915630 -14.243977 17.889333 -0.003755 0.200279 -0.550442 -1.653432 -3.911060 -25.964450 -0.047841 -1.410781 3.879861 -2.842617 5.591742 6.306082 -8.356629 6.643638 -4.552342 -8.194301 3.173225 -7.685581 -13.681062 -16.286192 -15.318109 13.260529 -20.368392 2.866781 3.888536 -9.386788 6.025161 0.000000 0.000000 0.000000 41.927598 22.640599 -42.059793 88.966372 -59.967053 59.105386 20.281704 -41.959802 28.850895 0.000000 0.000000 0.000000 -7.125000 0.000000 0.000000 -6.059992 -0.297057 -6.124929 0.000000 0.000000 0.000000 -90.878892 -25.768596 -61.161284 -34.531556 -43.974472 -14.647805 -28.988923 -19.111096 57.576033 0.000000 0.000000 0.000000 7.125000 0.000000 0.000000 84.450430 -39.081617 88.438474
-1.662094 17.897672 6.886252 -5.134551 10.671253 -5.929746 0.000000 0.000000 0.000000 -7.666166 -2.224308 31.542585 2.298766 -9.462329 -27.252627 -0.553322 14.784337 1.999354 1.553838 -7.861773 -22.298031 0.000000 0.000000 0.000000 22.033053 -14.631938 16.574889 0.000000 0.000000 0.000000 -1.676340 -3.483397 -25.917760 -0.049627 -1.436769 3.951549 -3.435365 5.918860 6.029866 -8.651060 7.028219 -4.589295 -8.199054 3.391175 -7.562397 -14.066480 -16.765521 -14.430821 13.609582 -20.985115 1.753081 4.029278 -9.721084 5.692514 0.000000 0.000000 0.000000 40.986866 25.536556 -41.588310 93.112718 -59.945348 62.694940 20.036685 -42.195574 28.399683 0.000000 0.000000 0.000000 -7.125000 0.000000 0.000000 -6.149590 0.209848 -6.162428 0.000000 0.000000 0.000000 -92.032404 -23.538368 -50.902709 -27.208397 -38.217867 -9.689928 5.618338 -49.365391 62.729194 0.000000 0.000000 0.000000 7.125000 0.000000 0.000000 93.088047 -70.465651 113.437192
-1.681537 17.930093 6.864377 -5.108513 11.568330 -5.210369 0.000000 0.000000 0.000000 -7.765186 -3.146802 30.545541 2.269346 -9.405879 -27.073487 -0.565003 15.022055 2.184926 1.419402 -7.533277 -21.305811 0.000000 0.000000 0.000000 22.144641 -15.150172 15.490623 0.000000 0.000000 0.000000 -1.659441 -3.284442 -25.701630 -0.058611 -1.557870 4.285383 -4.040772 6.180580 5.723613 -8.917284 7.328448 -4.666981 -8.157180 3.567334 -7.483792 -14.333833 -17.115296 -13.358097 13.881116 -21.470110 0.630097 4.172426 -10.005242 5.296553 0.000000 0.000000 0.000000 39.891242 28.718631 -40.857628 95.998406 -59.857804 65.192109 19.862929 -42.168354 28.404435 0.000000 0.000000 0.000000 -7.125000 0.000000 0.000000 -6.252088 0.237269 -6.263730 0.000000 0.000000 0.000000 -92.898714 -20.166060 -37.348696 -23.768866 -34.903398 -7.580446 34.826620 -77.964062 58.130690 0.000000 0.000000 0.000000 7.125000 0.000000 0.000000 85.663317 -14.723030 41.904868
-1.701556 17.958760 6.845518 -5.163967 12.580709 -4.550634 0.000000 0.000000 0.000000 -7.741036 -4.070495 29.608455 2.254956 -9.378112 -26.985419 -0.567373 15.172400 2.407937 1.368950 -7.404888 -20.920601 0.000000 0.000000 0.000000 22.345107 -15.801930 14.417366 0.000000 0.000000 0.000000 -1.647887 -3.067100 -25.516731 -0.072115 -1.731539 4.764279 -4.524109 6.395693 5.429178 -9.153889 7.585538 -4.717034 -8.142505 3.717747 -7.376596 -14.522002 -17.427087 -12.305849 13.992109 -21.922230 -0.306427 4.262014 -10.278170 4.933220 0.000000 0.000000 0.000000 38.773007 31.980527 -39.966722 97.818034 -59.766409 66.765223 19.716766 -41.846893 28.672414 0.000000 0.000000 0.000000 -7.125000 0.000000 0.000000 -6.368597 -0.009114 -6.409483 0.000000 0.000000 0.000000 -93.349702 -17.853220 -25.001289 -22.095125 -33.066182 -6.645945 39.089098 -85.128008 50.199591 0.000000 0.000000 0.000000 7.125000 0.000000 0.000000 90.741284 58.210892 -52.910147
-1.721927 17.979169 6.832590 -5.459837 13.877416 -4.051037 0.000000 0.000000 0.000000 -7.384197 -4.958387 28.741316 2.254179 -9.376520 -26.980481 -0.530250 14.962467 2.829200 1.392989 -7.466826 -21.105927 0.000000 0.000000 0.000000 22.783460 -16.792889 13.382752 0.000000 0.000000 0.000000 -1.649274 -2.810784 -25.409246 -0.082159 -1.849176 5.089104 -4.751745 6.547031 5.146370 -9.332000 7.798667 -4.647806 -8.183402 3.839558 -7.125248 -14.689663 -17.786416 -11.468716 14.036884 -22.447539 -0.907476 4.293850 -10.574557 4.707688 0.000000 0.000000 0.000000 37.852041 34.991606 -39.098058 98.896942 -59.698735 67.697206 19.549873 -41.363324 28.929065 0.000000 0.000000 0.000000 -7.125000 0.000000 0.000000 -6.495780 -0.239782 -6.565337 0.000000 0.000000 0.000000 -92.692408 -20.017838 -21.597074 -20.237566 -30.926384 -5.653452 26.916292 -75.130238 47.622247 0.000000 0.000000 0.000000 7.125000 0.000000 0.000000 78.882661 60.969688 -44.470313
